<?xml version="1.0" encoding="UTF-8"?>
<svg xmlns="http://www.w3.org/2000/svg" viewBox="0 0 149.51 80.43">
  <defs>
    <style>.cls-1{fill:#da3731;}</style>
  </defs>
  <g id="Calque_2" data-name="Calque 2">
    <g id="Calque_1-2" data-name="Calque 1">
      <path d="M7.37,0,0,80.43H14.94L15.81,66H21l.78,14.45H36.53L28.27,0Zm8.26,51.72Q16.2,41,18.4,17.93q1.11,20.13,2.2,33.79Zm43.54-15.5L51.07,0H39V80.43H51.07V43.87l7.52,36.56H71.26V0H59.17ZM77.06,80.43H91.52V0H77.06ZM131.77,0H118.21l-6.44,31.25V0H97.32V80.43h14.45V46l5.86,34.48h14.93l-9.08-44.11Zm3.28,0V80.43h14.46V0Z"></path>
      <path class="cls-1" d="M66.29,54.66c-.54-1.39-1-2.49-1.31-3.31-.74.57-1.34.53-1.8-.11a13.46,13.46,0,0,1-1.24-2.11c-.25-.53-.5-1-.73-1.43s-.49-.62-.79-.6c.18.75.34,1.7.5,2.87s.29,2.34.4,3.51.18,2.14.21,2.89c.07,2-.43,3.29-1.5,3.92a1.6,1.6,0,0,0-.29.05,1.51,1.51,0,0,0-.33.13c-.6.13-1.32.27-2.17.42a11.5,11.5,0,0,1-2.64.18A6.42,6.42,0,0,1,52,60.46a4.35,4.35,0,0,1-2-2,53.44,53.44,0,0,1-.71-7.69A48.27,48.27,0,0,1,49.74,43a2.61,2.61,0,0,0-.27-.8c-.13-.24-.26-.49-.4-.73a6.25,6.25,0,0,1-.35-.67,1.06,1.06,0,0,1-.11-.56,11.46,11.46,0,0,1,2.26-.4l3-.27a64,64,0,0,0,1-8.27q.24-4.35.55-7.86c.47-.12,1-.26,1.48-.43s1-.33,1.35-.49a6.49,6.49,0,0,0,.2-1.41,1.38,1.38,0,0,0-.39-1c-.72-.57-1.54-1.24-2.48-2a8.46,8.46,0,0,0-2.9-1.6,4.11,4.11,0,0,0-1.84,0,23.52,23.52,0,0,0-2.61.59l-2.7.75-1.09.34c-.34.12-.64.2-.91.27q-2.67.66-5.46,1.23a21.61,21.61,0,0,1-5.34.46,10.7,10.7,0,0,1-1.62,1.55l-2.19,1.79a8.42,8.42,0,0,0,1.42,1.95c.56.56,1.12,1.12,1.68,1.66a19.44,19.44,0,0,1,1,3.81,39.17,39.17,0,0,1,.54,4.73,11.66,11.66,0,0,1-.27,3.69,33.93,33.93,0,0,0,1.89,3,7.64,7.64,0,0,0,2.33,2.15c.11-1,.58-1.48,1.43-1.5q-.62,2.58-1.45,5.74t-2,6.43a48.65,48.65,0,0,1-2.66,6.12,21.05,21.05,0,0,1-3.37,4.86,1.63,1.63,0,0,1,.83.47,8.47,8.47,0,0,1,.68.8,8.28,8.28,0,0,0,.81.85,1,1,0,0,0,1,.21A48.85,48.85,0,0,0,38.37,58a90.69,90.69,0,0,0,4.08-13,3.63,3.63,0,0,0,1.31-2.45c-.08-.2-.16-.42-.24-.64a5.87,5.87,0,0,1-.2-.78h0a5.13,5.13,0,0,1,1.07-.21c.3,0,.6.16.91.56a40.24,40.24,0,0,1,.47,4.42c.07,1.45.13,2.82.17,4.13,0,.92,0,1.82.08,2.68s.11,1.69.2,2.48c-.15,0-.26.08-.33.34a.81.81,0,0,1-.08.2,17,17,0,0,0,2.5,5.59,29.62,29.62,0,0,0,3.49,3.92c1.36.35,2.8.66,4.32.92a22.4,22.4,0,0,0,4.54.29,11.31,11.31,0,0,0,4.21-.94,7.55,7.55,0,0,0,3.25-2.79,5.75,5.75,0,0,0,.76-4.11A11.69,11.69,0,0,1,66.29,54.66ZM45.63,37.1c-1.28.27-2.55.5-3.8.69s-2.62.33-4.1.45q-.31-3.32-.61-6.72c-.19-2.26-.41-4.47-.65-6.65q3.84-1.38,7-2.24a25.65,25.65,0,0,1,5.67-.93,26.8,26.8,0,0,1,.57,4.23c.1,1.65.15,3.37.16,5.14s0,3.41,0,4.93v.13C48.3,36.5,46.91,36.83,45.63,37.1Zm72.54-6.77a7.76,7.76,0,0,0-2.23-.86,10.06,10.06,0,0,0-3.18,0,.61.61,0,0,0-.38.21,2.64,2.64,0,0,0-.35.4,3.43,3.43,0,0,1-.42.48.86.86,0,0,1-.4.21,25.75,25.75,0,0,0-3.62.26c-1.35.19-2.71.39-4.08.62s-2.66.5-3.85.82l0-.39c-.08-.39-.13-.71-.16-1a4,4,0,0,1,0-.85l.77-.23.87-.23c1-.3,2.1-.56,3.28-.79a5.57,5.57,0,0,1,3.38.39,10.77,10.77,0,0,0,1.14-3.45,19.4,19.4,0,0,0,.1-4.78,3.32,3.32,0,0,1,1-.94,5.43,5.43,0,0,0,1.05-.85,1.89,1.89,0,0,0,.45-1.4c-.93-.68-1.85-1.36-2.74-2a4.44,4.44,0,0,0-2.9-1,2.5,2.5,0,0,0-1.15.3c-.38.2-.78.43-1.19.7l-1.24.67A3.57,3.57,0,0,1,101,17l-.49.06-.54.07c-.37,0-.73.09-1.09.16a5.92,5.92,0,0,0-1,.28q.08-1.32,0-3.12a4.94,4.94,0,0,0-1-2.94,4.82,4.82,0,0,0-3.16-2,4,4,0,0,0-3.31.76c.15.24.31.46.46.66s.31.43.5.67a30.77,30.77,0,0,1,1.85,2.9,9.25,9.25,0,0,1,1.05,4c-1.13.27-2.38.61-3.75,1l-4,1.22c-1.27.4-2.34.71-3.19.94a6.52,6.52,0,0,0,.75,1.52c.31.47.63.93,1,1.37a12.42,12.42,0,0,1,1.49,2.42,4.37,4.37,0,0,1-.06,3.26,3.23,3.23,0,0,0,1.74,1.73,5.91,5.91,0,0,1,2,1.25,5.15,5.15,0,0,1,2.51-1.55c1-.24,1.82-.43,2.62-.57l.35,0,.35,0a2.05,2.05,0,0,0,0,.43,1.76,1.76,0,0,0,.1.41l.08.65a1.89,1.89,0,0,1,0,.59,67.14,67.14,0,0,0-9.34,2.39A65.36,65.36,0,0,1,77,38a9.17,9.17,0,0,0,3.13,2.59,8,8,0,0,0,4.59.84,1.08,1.08,0,0,0,.5-.72.9.9,0,0,1,.61-.66c.36-.13.74-.29,1.14-.47s.85-.36,1.33-.55q2.43-1,5.61-2.21a56.79,56.79,0,0,1,6.6-2,26.35,26.35,0,0,1,6.54-.81,7.08,7.08,0,0,0,1.52-.08c.51-.08,1-.16,1.6-.22s1-.19,1.58-.26,1-.1,1.59-.12c.37,0,.76,0,1.16.06l1.17.12a10.44,10.44,0,0,0,2.92.15,2.42,2.42,0,0,0,2-1.85C119.68,31.22,118.86,30.73,118.17,30.33ZM94.91,27.79c-.18.05-.36.1-.55.17-.66.21-1.32.39-2,.56a8.58,8.58,0,0,1-1.83.28,9,9,0,0,1-.16-1.16c0-.39-.06-.81-.08-1.24s0-.86-.08-1.27a10.88,10.88,0,0,0-.16-1.2,9.6,9.6,0,0,1,2.07-1.2L94.7,21.6c.07.35.14.78.2,1.3s.12,1.06.19,1.62.12,1.05.16,1.59.12,1.05.21,1.52A5,5,0,0,1,94.91,27.79Zm3.72-4.09c-.12-1.25-.21-2.3-.28-3.12a5.33,5.33,0,0,0,.85-.17,8.43,8.43,0,0,1,.9-.17c.64-.16,1.29-.31,1.93-.43a4.92,4.92,0,0,1,1.69-.06,10,10,0,0,1,.61,3.28,19.23,19.23,0,0,1-.13,3.1,3.31,3.31,0,0,0-1.83-.11,19.14,19.14,0,0,0-2.18.52,5.24,5.24,0,0,1-.62.17l-.57.17C98.87,26,98.74,25,98.63,23.7Zm17.65,44.43a1.31,1.31,0,0,1,.14-1A12,12,0,0,0,114,62.57a16.05,16.05,0,0,0-3.39-2.91q-1.86-1.2-3.74-2.29a4.14,4.14,0,0,1,1.23,0q.52.11,1,.24a7.86,7.86,0,0,0,.93.25,4.55,4.55,0,0,0,1.09.1q-.12-3.85-.57-7.79c-.29-2.61-.59-5.07-.89-7.35-.08-.43-.15-.83-.19-1.2s-.09-.74-.14-1.13a6.7,6.7,0,0,0,1.77-1.79,2.69,2.69,0,0,0,.22-2.53,8.6,8.6,0,0,1-1.32-.2c-.43-.1-.88-.19-1.33-.27a13.48,13.48,0,0,0-2.13-.5,6,6,0,0,0-2.26.1,4.71,4.71,0,0,0-1.59.68,6,6,0,0,1-1.68.76c-1.58.49-3.21.93-4.89,1.3a16.54,16.54,0,0,0-4.87,2,1.37,1.37,0,0,0-1.52.08,5.84,5.84,0,0,0-1.2,1.23,3.06,3.06,0,0,0,1.32,1.42,3.62,3.62,0,0,1,1.42,1.41l.18,3.3c.07,1.28.09,2.59.06,3.9A15.86,15.86,0,0,1,91.1,55a2.12,2.12,0,0,0,.32.72l.46.64q.27.36.51.72a1.19,1.19,0,0,1,.18.77,2.2,2.2,0,0,1-.44,0,3.91,3.91,0,0,1-.46,0,5.06,5.06,0,0,0-1-.06,1.18,1.18,0,0,0-.84.47,2.61,2.61,0,0,0,1.44,1.73,6.76,6.76,0,0,0,2.1.41,7,7,0,0,1,2.3.52q-.87,2.21-2,4.48a22.71,22.71,0,0,1-2.32,3.73,2.28,2.28,0,0,0,1,1.06,2.46,2.46,0,0,1,1.06,1,3.41,3.41,0,0,0,1.89-1.64,15.39,15.39,0,0,0,1.17-2.67c.31-.95.57-1.75.77-2.39a2.88,2.88,0,0,0,1.32-1.6c.24-.69.46-1.4.67-2.15a3.58,3.58,0,0,1,1.13-1.81,7.59,7.59,0,0,1,1.61-.36,7.16,7.16,0,0,0,1.92-.52,3.21,3.21,0,0,1,.42.41,5.33,5.33,0,0,0,.43.41A21.39,21.39,0,0,1,107,61.14a5.78,5.78,0,0,1,1.23,3.18,6.17,6.17,0,0,1,1.34,1.15c.41.48.84,1,1.27,1.43a18.4,18.4,0,0,0,2.5,2.56,3.25,3.25,0,0,0,3.29.5,4.9,4.9,0,0,0-.12-.64C116.41,68.93,116.34,68.54,116.28,68.13ZM94.79,43.46A4.53,4.53,0,0,1,95,41.88a9.07,9.07,0,0,0,1.39-.43L98,40.88c1.12-.4,2.24-.77,3.36-1.13a6.09,6.09,0,0,1,2.79-.33,4.1,4.1,0,0,1,.92,2,15.13,15.13,0,0,1,.36,3.18c-.62-.19-1.28-.38-2-.56a2.78,2.78,0,0,1-1.49-.81,16.29,16.29,0,0,0-1.67.43c-.53.17-1.07.36-1.61.55l-1.93.63a7.51,7.51,0,0,1-2,.36Q94.79,44.35,94.79,43.46Zm11.74,11.13a12.37,12.37,0,0,0-2.8.26q-1.52.32-3,.69c-.94.25-1.85.45-2.71.62a11.3,11.3,0,0,1-2.33.24q0-.84-.06-1.47c0-.42,0-.91,0-1.47a13.62,13.62,0,0,0,4.93-.59,37,37,0,0,0,4.11-1.54,4.77,4.77,0,0,0,.5-.19l.45-.18c-.94-1.29-1.92-1.88-2.92-1.76a14.22,14.22,0,0,0-3.14.77c-.7.26-1.39.49-2.09.71a4.32,4.32,0,0,1-2.11.11,13.75,13.75,0,0,1-.19-1.55c0-.44,0-.88,0-1.32a10.21,10.21,0,0,0,3-.38c.82-.25,1.59-.53,2.31-.83s1.52-.59,2.31-.84a8.75,8.75,0,0,1,2.84-.3q.08.59.18,1.26c.06.45.15.94.24,1.45.14.69.27,1.41.4,2.16s.21,1.52.27,2.3C106.61,53.13,106.59,53.75,106.53,54.59Z"></path>
    </g>
  </g>
</svg>
